<svg xmlns="http://www.w3.org/2000/svg" version="1.1" xmlns:xlink="http://www.w3.org/1999/xlink" xmlns:svgjs="http://svgjs.dev/svgjs" width="1000" height="1000" viewBox="0 0 1000 1000"><rect width="1000" height="1000" fill="#77d4fc"></rect><g transform="matrix(0.7,0,0,0.7,149.5757575757575,439.20871584961776)"><svg viewBox="0 0 396 69" data-background-color="#77d4fc" preserveAspectRatio="xMidYMid meet" height="174" width="1000" xmlns="http://www.w3.org/2000/svg" xmlns:xlink="http://www.w3.org/1999/xlink"><g id="tight-bounds" transform="matrix(1,0,0,1,0.24000000000003752,-0.06158779658150593)"><svg viewBox="0 0 395.5199999999999 69.123175593163" height="69.123175593163" width="395.5199999999999"><g><svg viewBox="0 0 564.9759668904487 98.73820025608195" height="69.123175593163" width="395.5199999999999"><g><rect width="8.860012733249887" height="98.73820025608195" x="137.40220354659712" y="0" fill="#0080ff" opacity="1" stroke-width="0" stroke="transparent" fill-opacity="1" class="rect-r$-0" data-fill-palette-color="primary" rx="1%" id="r$-0" data-palette-color="#0080ff"></rect></g><g transform="matrix(1,0,0,1,169.4559668904488,0.24561741357234013)"><svg viewBox="0 0 395.52 98.24696542893727" height="98.24696542893727" width="395.52"><g id="textblocktransform"><svg viewBox="0 0 395.52 98.24696542893727" height="98.24696542893727" width="395.52" id="textblock"><g><svg viewBox="0 0 395.52 98.24696542893727" height="98.24696542893727" width="395.52"><g transform="matrix(1,0,0,1,0,0)"><svg width="395.52" viewBox="0.45 -38.1 156.19 38.800000000000004" height="98.24696542893727" data-palette-color="#0080ff"><path d="M36.05-1.4L36.05 0 23.25 0 23.25-1.4 24.85-1.4Q27.05-1.4 27.05-2.8L27.05-2.8Q27.05-3 26.55-4.5L26.55-4.5 23.15-13.4 10.55-13.4 7.25-4.9Q7.25-4.8 6.9-3.68 6.55-2.55 6.55-2.13 6.55-1.7 7.1-1.55 7.65-1.4 9.45-1.4L9.45-1.4 10.25-1.4 10.25 0 0.45 0 0.45-1.4 1.15-1.4Q2.8-1.4 3.55-1.98 4.3-2.55 4.85-3.9L4.85-3.9 15.85-32.6Q16.1-32.65 16.75-33.33 17.4-34 17.95-34.73 18.5-35.45 18.5-35.55 18.5-35.65 18.45-35.7L18.45-35.7 19.15-35.9 31.45-3.7Q32-2.55 32.58-1.98 33.15-1.4 34.25-1.4L34.25-1.4 36.05-1.4ZM11.35-15.5L22.25-15.5 16.85-29.8 11.35-15.5ZM64.05-1.4L64.05 0 55.45 0 55.45-1.4 55.65-1.4Q56.2-1.4 56.57-1.95 56.95-2.5 56.95-3.3L56.95-3.3 56.95-16Q56.95-18.25 55.87-19.43 54.8-20.6 52.85-20.6L52.85-20.6Q50.05-20.6 47.9-17.6 45.75-14.6 45.75-13.1L45.75-13.1 45.75-3.6Q45.75-2.8 45.82-2.45 45.9-2.1 46.4-1.75 46.9-1.4 47.95-1.4L47.95-1.4 48.85-1.4 48.85 0 38.75 0 38.75-1.4 39.55-1.4Q40.9-1.4 41.27-1.85 41.65-2.3 41.65-3.3L41.65-3.3 41.65-18.3Q41.65-19.25 41.02-19.68 40.4-20.1 38.75-20.1L38.75-20.1 38.75-21.5Q39.75-21.5 41.77-22.23 43.8-22.95 44.85-23.6L44.85-23.6 45.75-23.8 45.75-17.4Q46.9-20.55 49.3-22.28 51.7-24 55.15-24L55.15-24Q56.95-24 58.2-23.2 59.45-22.4 60-21.15L60-21.15Q60.95-19 60.95-16.9L60.95-16.9 60.95-3.4Q60.95-2.7 61.05-2.35L61.05-2.35Q61.3-1.4 63.15-1.4L63.15-1.4 64.05-1.4ZM68.05-1.4L68.05-1.4 68.55-6.8 69.95-6.7Q69.95-5 72.15-3.45 74.35-1.9 76.9-1.9L76.9-1.9Q82.15-1.9 82.15-5.1L82.15-5.1Q82.15-6.7 80.8-7.95 79.45-9.2 77.55-10.03 75.65-10.85 73.75-11.73 71.85-12.6 70.5-14.03 69.15-15.45 69.15-17.3L69.15-17.3Q69.15-23.8 78.75-23.8L78.75-23.8Q80.9-23.8 83.45-22.6L83.45-22.6 83.15-17.6 81.95-17.6Q81.95-19 80.32-20.3 78.7-21.6 76.8-21.6 74.9-21.6 73.57-20.85 72.25-20.1 72.25-18.63 72.25-17.15 73.6-16.2 74.95-15.25 76.85-14.65 78.75-14.05 80.65-13.3 82.55-12.55 83.9-10.85 85.25-9.15 85.25-6.6 85.25-4.05 83.6-2.35L83.6-2.35Q80.65 0.7 75.05 0.7L75.05 0.7Q70.7 0.7 68.05-1.4ZM114.64-1.4L114.64 0 105.94 0 105.94-1.4 106.24-1.4Q106.74-1.4 107.09-1.93 107.44-2.45 107.44-3.3L107.44-3.3 107.44-16Q107.44-20.6 103.44-20.6L103.44-20.6Q100.59-20.6 98.42-17.6 96.24-14.6 96.24-13.1L96.24-13.1 96.24-3.6Q96.24-2.85 96.34-2.45L96.34-2.45Q96.59-1.4 98.44-1.4L98.44-1.4 99.44-1.4 99.44 0 89.34 0 89.34-1.4 90.04-1.4Q91.39-1.4 91.82-1.88 92.24-2.35 92.24-3.3L92.24-3.3 92.24-33Q92.24-33.95 91.59-34.38 90.94-34.8 89.34-34.8L89.34-34.8 89.34-36.2Q90.39-36.2 92.44-36.75 94.49-37.3 95.34-37.9L95.34-37.9 96.24-38.1 96.24-17.4Q98.84-24 105.64-24L105.64-24Q107.44-24 108.72-23.2 109.99-22.4 110.54-21.15L110.54-21.15Q111.54-19.05 111.54-16.9L111.54-16.9 111.54-3.4Q111.54-2.7 111.64-2.35L111.64-2.35Q111.84-1.4 113.64-1.4L113.64-1.4 114.64-1.4ZM143.04-1.4L143.04 0 135.84 0 135.84-5.9Q134.69-2.75 132.29-1.03 129.89 0.7 126.44 0.7L126.44 0.7Q124.64 0.7 123.39-0.1 122.14-0.9 121.59-2.15L121.59-2.15Q120.64-4.3 120.64-6.4L120.64-6.4 120.64-18.3Q120.64-20.6 117.74-20.6L117.74-20.6 117.74-22Q118.74-22 120.77-22.55 122.79-23.1 123.74-23.7L123.74-23.7 124.64-23.8 124.64-7.3Q124.64-5.05 125.72-3.88 126.79-2.7 128.74-2.7L128.74-2.7Q131.54-2.7 133.69-5.7 135.84-8.7 135.84-10.2L135.84-10.2 135.84-18.3Q135.84-20.6 132.94-20.6L132.94-20.6 132.94-22Q134.04-22 136.07-22.55 138.09-23.1 139.04-23.7L139.04-23.7 139.94-23.8 139.94-3.4Q139.94-2.7 140.04-2.35L140.04-2.35Q140.29-1.4 142.14-1.4L142.14-1.4 143.04-1.4ZM156.64-1.4L156.64 0 146.64 0 146.64-1.4 147.34-1.4Q148.44-1.4 148.94-1.88 149.44-2.35 149.44-3.5L149.44-3.5 149.44-33Q149.44-33.95 148.79-34.38 148.14-34.8 146.54-34.8L146.54-34.8 146.54-36.2Q147.54-36.2 149.61-36.75 151.69-37.3 152.64-37.9L152.64-37.9 153.54-38.1 153.54-3.6Q153.54-2.8 153.61-2.45 153.69-2.1 154.19-1.75 154.69-1.4 155.74-1.4L155.74-1.4 156.64-1.4Z" opacity="1" transform="matrix(1,0,0,1,0,0)" fill="#0080ff" class="wordmark-text-0" data-fill-palette-color="primary" id="text-0"></path></svg></g></svg></g></svg></g></svg></g><g transform="matrix(1,0,0,1,0,0.24561741357234013)"><svg viewBox="0 0 114.20845293599533 98.24696542893727" height="98.24696542893727" width="114.20845293599533"><g><svg xmlns="http://www.w3.org/2000/svg" xmlns:xlink="http://www.w3.org/1999/xlink" version="1.1" x="0" y="0" viewBox="20.357999999999997 23.982847388917442 60.01 51.62315261108255" enable-background="new 0 0 100 100" xml:space="preserve" height="98.24696542893727" width="114.20845293599533" class="icon-icon-0" data-fill-palette-color="accent" id="icon-0"><path d="M60.541 28.82c0.532 2.353 1.176 4.893 1.301 7.342 0.033 0.654 0.072 1.512-0.201 2.07 2.227 1.482 1.137 4.562-0.166 6.129-0.469 0.562-1.535 1.26-1.773 1.957-0.352 1.025-0.787 2.031-1.408 2.938-0.519 0.756-0.408 0.184-0.925 1.344-0.35 1.576-0.881 5.145-0.13 6.61 0.986 1.921 3.146 3.137 4.934 4.159 2.37 1.356 5.018 2.351 7.549 3.362 2.33 0.931 4.76 1.626 7.002 2.764 0.703 0.356 1.412 0.704 2.078 1.128 0.537 0.342 1.438 0.869 1.566 1.559v5.424h-60.01l0.041-5.424c0.128-0.689 1.029-1.217 1.566-1.559 0.666-0.424 1.375-0.771 2.078-1.128 2.242-1.138 4.673-1.833 7.002-2.764 2.531-1.012 5.178-2.006 7.549-3.362 1.787-1.022 3.947-2.238 4.933-4.159 0.752-1.466 0.332-5.05-0.019-6.624l0 0c-0.601-0.389-1.016-1.594-1.357-2.197-0.359-0.637-0.648-1.324-1.086-1.914-0.597-0.805-1.592-1.182-2.242-1.936-0.434-0.502-0.619-1.124-0.834-1.74-0.257-0.736-0.131-1.334-0.246-2.161-0.051-0.354 0.13-0.765 0.34-1.064 0.258-0.368 0.728-0.44 0.847-0.906 0.147-0.577-0.177-1.253-0.239-1.823-0.066-0.609-0.224-1.58-0.221-2.191 0.01-2.217-0.4-4.217 1.375-5.969 0.624-0.614 1.333-1.145 2.01-1.699l0 0c0.26-0.828 1.507-1.338 2.236-1.616 0.947-0.36 1.943-0.562 2.914-0.851 2.93-0.873 6.297-0.78 8.866 1.029 0.843 0.594 2.005 0.084 2.893 0.594C59.619 26.634 60.639 27.771 60.541 28.82z" fill="#0023ff" data-fill-palette-color="accent"></path></svg></g></svg></g></svg></g><defs></defs></svg><rect width="395.5199999999999" height="69.123175593163" fill="none" stroke="none" visibility="hidden"></rect></g></svg></g></svg>